HIERARCHY
ROOT root
{
	OFFSET 0.000000 0.000000 0.000000
	CHANNELS 6 Xposition Yposition Zposition Zrotation Yrotation Xrotation
	JOINT lhip
	{
		OFFSET 0.058581 -0.082280 -0.017664
		CHANNELS 3 Zrotation Yrotation Xrotation
		JOINT lknee
		{
			OFFSET 0.043451 -0.386469 0.008037
			CHANNELS 3 Zrotation Yrotation Xrotation
			JOINT lankle
			{
				OFFSET -0.014790 -0.426874 -0.037428
				CHANNELS 3 Zrotation Yrotation Xrotation
				JOINT ltoe
				{
					OFFSET 0.041054 -0.060286 0.122042
					CHANNELS 3 Zrotation Yrotation Xrotation
					End Site
					{
						OFFSET 0.000000 0.000000 0.000000
					}
				}
			}
		}
	}
	JOINT rhip
	{
		OFFSET -0.060310 -0.090513 -0.013543
		CHANNELS 3 Zrotation Yrotation Xrotation
		JOINT rknee
		{
			OFFSET -0.043257 -0.383688 -0.004843
			CHANNELS 3 Zrotation Yrotation Xrotation
			JOINT rankle
			{
				OFFSET 0.019056 -0.420046 -0.034562
				CHANNELS 3 Zrotation Yrotation Xrotation
				JOINT rtoe
				{
					OFFSET -0.034840 -0.062106 0.130323
					CHANNELS 3 Zrotation Yrotation Xrotation
					End Site
					{
						OFFSET 0.000000 0.000000 0.000000
					}
				}
			}
		}
	}
	JOINT lowerback
	{
		OFFSET 0.004439 0.124404 -0.038385
		CHANNELS 3 Zrotation Yrotation Xrotation
		JOINT upperback
		{
			OFFSET 0.004488 0.137956 0.026820
			CHANNELS 3 Zrotation Yrotation Xrotation
			JOINT chest
			{
				OFFSET -0.002265 0.056032 0.002855
				CHANNELS 3 Zrotation Yrotation Xrotation
				JOINT lowerneck
				{
					OFFSET -0.013390 0.211636 -0.033468
					CHANNELS 3 Zrotation Yrotation Xrotation
					JOINT upperneck
					{
						OFFSET 0.010113 0.088937 0.050410
						CHANNELS 3 Zrotation Yrotation Xrotation
						End Site
						{
							OFFSET 0.000000 0.000000 0.000000
						}
					}
				}
				JOINT lclavicle
				{
					OFFSET 0.071702 0.114000 -0.018898
					CHANNELS 3 Zrotation Yrotation Xrotation
					JOINT lshoulder
					{
						OFFSET 0.122921 0.045205 -0.019046
						CHANNELS 3 Zrotation Yrotation Xrotation
						JOINT lelbow
						{
							OFFSET 0.255332 -0.015649 -0.022946
							CHANNELS 3 Zrotation Yrotation Xrotation
							JOINT lwrist
							{
								OFFSET 0.265709 0.012698 -0.007375
								CHANNELS 3 Zrotation Yrotation Xrotation
								End Site
								{
									OFFSET 0.000000 0.000000 0.000000
								}
							}
						}
					}
				}
				JOINT rclavicle
				{
					OFFSET -0.082954 0.112472 -0.023707
					CHANNELS 3 Zrotation Yrotation Xrotation
					JOINT rshoulder
					{
						OFFSET -0.113228 0.046853 -0.008472
						CHANNELS 3 Zrotation Yrotation Xrotation
						JOINT relbow
						{
							OFFSET -0.260127 -0.014369 -0.031269
							CHANNELS 3 Zrotation Yrotation Xrotation
							JOINT rwrist
							{
								OFFSET -0.269108 0.006794 -0.006027
								CHANNELS 3 Zrotation Yrotation Xrotation
								End Site
								{
									OFFSET 0.000000 0.000000 0.000000
								}
							}
						}
					}
				}
			}
		}
	}
}
MOTION
Frames: 7
Frame Time: 0.033333
-0.278355 0.164100 1.009097 93.832105 -0.787253 87.799475 0.887693 -0.092068 1.965480 -2.912399 -1.169110 7.435812 1.922569 8.247225 -8.162184 0.000000 -0.000000 0.000000 1.558915 -2.255083 0.023738 0.580247 -4.777891 9.481658 3.570557 -4.738457 -7.427238 0.000000 -0.000000 0.000000 -0.406920 0.501584 2.982013 1.727266 -1.752663 2.739496 -0.271211 -0.624730 0.102175 0.889173 9.380522 -2.209406 -2.273560 4.563841 13.938542 -25.570068 3.783214 1.707747 -50.935116 -6.615308 21.523066 -66.155380 -76.489323 83.584010 0.376725 -16.438338 -16.009270 24.627886 -2.118742 -0.589715 48.995228 2.020372 26.205375 70.577997 84.660601 89.050854 9.641727 16.955912 -15.331080 
-0.279692 0.167197 1.009311 94.115800 -0.865785 87.738606 0.579982 -0.364994 2.042396 -2.927875 -1.311314 7.244942 2.207608 8.298413 -7.989772 0.000000 -0.000000 0.000000 1.204685 -2.084889 -0.001956 0.741447 -4.937053 9.544232 3.863576 -5.142082 -7.402178 0.000000 -0.000000 0.000000 -0.402838 0.488671 3.053171 1.655479 -1.543704 2.844602 -0.417056 -0.700810 0.238422 0.773120 9.663194 -1.183145 -2.600181 5.088413 15.164159 -25.544921 3.865080 1.808089 -50.893514 -6.711844 21.462704 -65.240235 -77.230595 82.247425 -0.319585 -16.609163 -16.586751 24.589277 -2.048707 -0.457969 49.008742 2.516262 26.426474 69.560220 84.949935 87.827791 10.278425 17.055976 -15.439302 
-0.280621 0.170527 1.009836 94.582575 -0.931438 87.623287 0.246546 -0.549050 2.091938 -2.835873 -1.398938 7.209196 2.039515 8.283310 -8.048951 0.000000 -0.000000 0.000000 0.894079 -2.369571 -0.013230 0.677265 -5.225693 9.714541 4.044468 -5.076059 -7.398305 0.000000 -0.000000 0.000000 -0.308833 0.393833 3.399114 1.493551 -1.597563 2.461529 -0.586550 -0.560707 0.440898 0.691035 9.921592 0.197314 -2.725163 5.456844 16.376629 -25.403639 4.313462 1.753952 -50.948465 -7.038136 21.350130 -63.850704 -77.231421 80.070500 -0.591649 -16.573989 -17.440104 24.543591 -2.198348 -0.623542 49.119889 2.663041 26.626977 67.143143 84.969495 84.756750 11.059702 17.515325 -16.447223 
-0.281402 0.173948 1.009650 94.532732 -0.829973 87.573000 0.223910 -0.464235 2.262288 -2.969621 -1.428082 6.912405 2.039792 8.327238 -8.180677 0.000000 -0.000000 0.000000 0.857925 -2.359198 -0.095319 0.520627 -5.173593 9.846596 4.063504 -5.064063 -7.326137 0.000000 -0.000000 0.000000 -0.261894 0.588209 3.314024 1.463675 -1.336172 2.624382 -0.695330 -0.499605 0.632731 0.549128 10.303375 2.138045 -3.017528 5.884711 17.938596 -25.246213 4.534078 1.677157 -51.018365 -7.353297 21.309224 -61.784840 -77.262590 77.965909 -0.326306 -16.626922 -17.794008 24.466479 -2.385520 -0.570628 49.118453 3.111580 26.675511 66.570986 84.906171 83.940757 10.937036 17.846056 -17.134175 
-0.282333 0.176455 1.009714 94.736202 -0.846533 87.620805 0.068060 -0.594680 2.238857 -3.003582 -1.602819 6.754227 1.937956 8.261641 -8.486545 0.000000 -0.000000 0.000000 0.651793 -2.398346 -0.217312 0.565497 -5.263246 9.880402 4.106200 -5.139489 -7.334218 0.000000 -0.000000 0.000000 -0.237691 0.518745 3.369539 1.414238 -1.361116 2.395207 -0.821610 -0.419619 0.900561 0.537757 10.523080 3.371539 -3.257662 6.245453 19.087681 -25.098878 4.707902 1.722853 -51.072589 -7.611838 21.302616 -60.747645 -77.297449 76.760766 0.239140 -16.695964 -18.015842 24.440498 -2.453431 -0.520883 49.220666 3.405414 26.790133 64.943668 84.889740 82.287669 10.843527 18.082988 -17.079943 
-0.283045 0.179036 1.009358 94.377946 -0.757120 87.675270 0.162841 -0.506890 2.499611 -3.251915 -1.435745 6.158765 1.916302 8.479984 -8.389531 0.000000 -0.000000 0.000000 0.691375 -2.084536 -0.484875 0.396137 -5.149400 10.165699 4.174479 -5.269337 -7.449821 0.000000 -0.000000 0.000000 -0.406710 0.842825 3.057857 1.492605 -1.043859 2.877076 -0.805837 -0.351823 1.060696 0.549070 10.854886 5.106436 -3.470151 6.449117 20.477269 -24.949051 4.692614 1.813024 -51.191545 -7.917459 21.233129 -60.236464 -77.513886 76.135526 0.013174 -16.409119 -17.575427 24.446647 -2.536768 -0.415433 49.225510 3.764143 26.782600 65.803330 85.063442 83.352004 11.071540 17.930864 -16.656023 
-0.284434 0.182690 1.009394 94.588171 -0.796789 87.746234 -0.094649 -0.520520 2.416362 -3.290817 -1.740867 6.051083 1.908686 8.464081 -8.728909 0.000000 -0.000000 0.000000 0.418407 -2.086229 -0.805114 0.361400 -5.251353 10.512297 4.426215 -5.380378 -7.543254 0.000000 -0.000000 0.000000 -0.491107 0.820631 3.291457 1.442450 -1.043047 2.665858 -0.920356 -0.357102 1.276898 0.551055 11.303666 6.678355 -3.537136 6.849170 22.078951 -24.769591 4.697187 1.904169 -51.223139 -8.036893 21.247489 -60.030242 -77.651737 76.331688 0.518425 -16.534473 -17.296518 24.370705 -2.600594 -0.187568 49.367899 4.017278 26.775897 65.903151 85.045296 83.680763 10.920140 17.975398 -16.562070 
